<mxfile host="app.diagrams.net" agent="Mozilla/5.0 (Windows NT 10.0; Win64; x64) AppleWebKit/537.36 (KHTML, like Gecko) Chrome/130.0.0.0 Safari/537.36 Edg/130.0.0.0" version="24.8.3" pages="2">
  <diagram id="Ht1M8jgEwFfnCIfOTk4-" name="Servers">
    <mxGraphModel dx="2595" dy="791" grid="1" gridSize="10" guides="1" tooltips="1" connect="1" arrows="1" fold="1" page="1" pageScale="1" pageWidth="1169" pageHeight="827" math="0" shadow="0">
      <root>
        <mxCell id="0" />
        <mxCell id="1" parent="0" />
        <mxCell id="gw53NkRwrUZh59jhNFVr-45" value="" style="whiteSpace=wrap;html=1;aspect=fixed;fillColor=#eeeeee;strokeColor=none;" parent="1" vertex="1">
          <mxGeometry x="-1158" y="24" width="779" height="779" as="geometry" />
        </mxCell>
        <mxCell id="FJp2DH1XPy8yfojvaqBR-2" value="" style="sketch=0;aspect=fixed;pointerEvents=1;shadow=0;dashed=0;html=1;strokeColor=none;labelPosition=center;verticalLabelPosition=bottom;verticalAlign=top;align=center;fillColor=#00188D;shape=mxgraph.mscae.enterprise.internet" parent="1" vertex="1">
          <mxGeometry x="-350" y="40.550000000000004" width="80" height="49.6" as="geometry" />
        </mxCell>
        <mxCell id="FJp2DH1XPy8yfojvaqBR-3" value="OCI" style="text;html=1;align=center;verticalAlign=middle;whiteSpace=wrap;rounded=0;fillColor=#021a92;strokeColor=none;fontColor=#ffffff;" parent="1" vertex="1">
          <mxGeometry x="-333.5" y="63.150000000000006" width="55" height="21.4" as="geometry" />
        </mxCell>
        <mxCell id="gw53NkRwrUZh59jhNFVr-50" style="edgeStyle=orthogonalEdgeStyle;rounded=0;orthogonalLoop=1;jettySize=auto;html=1;" parent="1" source="FJp2DH1XPy8yfojvaqBR-58" target="gw53NkRwrUZh59jhNFVr-2" edge="1">
          <mxGeometry relative="1" as="geometry">
            <Array as="points">
              <mxPoint x="-930" y="100" />
            </Array>
          </mxGeometry>
        </mxCell>
        <mxCell id="FJp2DH1XPy8yfojvaqBR-58" value="&lt;h1 style=&quot;font-size: 15px;&quot;&gt;integracoes.caedu.com.br&lt;/h1&gt;" style="text;html=1;align=center;verticalAlign=middle;whiteSpace=wrap;rounded=0;strokeWidth=0;fontSize=15;fillColor=#d5e8d4;strokeColor=#82b366;" parent="1" vertex="1">
          <mxGeometry x="-1040" y="64" width="314.5" height="30" as="geometry" />
        </mxCell>
        <mxCell id="FJp2DH1XPy8yfojvaqBR-70" value="&lt;h1 style=&quot;font-size: 15px;&quot;&gt;soa.caedu.com.br&lt;/h1&gt;" style="text;html=1;align=center;verticalAlign=middle;whiteSpace=wrap;rounded=0;strokeWidth=0;fontSize=15;fillColor=#d5e8d4;strokeColor=#82b366;" parent="1" vertex="1">
          <mxGeometry x="-1040" y="343.62" width="314.5" height="30" as="geometry" />
        </mxCell>
        <mxCell id="gw53NkRwrUZh59jhNFVr-20" style="edgeStyle=orthogonalEdgeStyle;rounded=0;orthogonalLoop=1;jettySize=auto;html=1;" parent="1" source="gw53NkRwrUZh59jhNFVr-1" target="FJp2DH1XPy8yfojvaqBR-26" edge="1">
          <mxGeometry relative="1" as="geometry">
            <mxPoint x="-760" y="650" as="targetPoint" />
          </mxGeometry>
        </mxCell>
        <mxCell id="gw53NkRwrUZh59jhNFVr-31" style="edgeStyle=orthogonalEdgeStyle;rounded=0;orthogonalLoop=1;jettySize=auto;html=1;entryX=0.5;entryY=0;entryDx=0;entryDy=0;" parent="1" source="gw53NkRwrUZh59jhNFVr-1" target="FJp2DH1XPy8yfojvaqBR-31" edge="1">
          <mxGeometry relative="1" as="geometry" />
        </mxCell>
        <mxCell id="gw53NkRwrUZh59jhNFVr-1" value="" style="outlineConnect=0;dashed=0;verticalLabelPosition=bottom;verticalAlign=top;align=center;html=1;shape=mxgraph.aws3.classic_load_balancer;fillColor=#F58534;gradientColor=none;" parent="1" vertex="1">
          <mxGeometry x="-780" y="421.68" width="69" height="72" as="geometry" />
        </mxCell>
        <mxCell id="gw53NkRwrUZh59jhNFVr-57" style="edgeStyle=orthogonalEdgeStyle;rounded=0;orthogonalLoop=1;jettySize=auto;html=1;entryX=0.5;entryY=0;entryDx=0;entryDy=0;" parent="1" source="gw53NkRwrUZh59jhNFVr-2" target="FJp2DH1XPy8yfojvaqBR-18" edge="1">
          <mxGeometry relative="1" as="geometry">
            <Array as="points">
              <mxPoint x="-600" y="180" />
              <mxPoint x="-654" y="180" />
            </Array>
          </mxGeometry>
        </mxCell>
        <mxCell id="gw53NkRwrUZh59jhNFVr-58" style="edgeStyle=orthogonalEdgeStyle;rounded=0;orthogonalLoop=1;jettySize=auto;html=1;" parent="1" source="gw53NkRwrUZh59jhNFVr-2" edge="1">
          <mxGeometry relative="1" as="geometry">
            <mxPoint x="-520" y="220" as="targetPoint" />
            <Array as="points">
              <mxPoint x="-600" y="180" />
              <mxPoint x="-519" y="180" />
              <mxPoint x="-519" y="220" />
            </Array>
          </mxGeometry>
        </mxCell>
        <mxCell id="gw53NkRwrUZh59jhNFVr-2" value="" style="outlineConnect=0;dashed=0;verticalLabelPosition=bottom;verticalAlign=top;align=center;html=1;shape=mxgraph.aws3.classic_load_balancer;fillColor=#F58534;gradientColor=none;" parent="1" vertex="1">
          <mxGeometry x="-640.48" y="64" width="69" height="72" as="geometry" />
        </mxCell>
        <mxCell id="FJp2DH1XPy8yfojvaqBR-16" value="" style="swimlane;startSize=0;" parent="1" vertex="1">
          <mxGeometry x="-562.5925925925926" y="220.72378138847859" width="93.5925925925926" height="122.89512555391433" as="geometry" />
        </mxCell>
        <mxCell id="FJp2DH1XPy8yfojvaqBR-7" value="" style="sketch=0;aspect=fixed;pointerEvents=1;shadow=0;dashed=0;html=1;strokeColor=none;labelPosition=center;verticalLabelPosition=bottom;verticalAlign=top;align=center;fillColor=#00188D;shape=mxgraph.mscae.enterprise.web_server" parent="FJp2DH1XPy8yfojvaqBR-16" vertex="1">
          <mxGeometry x="35.53703703703704" y="24.72378138847858" width="25.333333333333336" height="33.333333333333336" as="geometry" />
        </mxCell>
        <mxCell id="gw53NkRwrUZh59jhNFVr-32" style="edgeStyle=orthogonalEdgeStyle;rounded=0;orthogonalLoop=1;jettySize=auto;html=1;" parent="FJp2DH1XPy8yfojvaqBR-16" source="FJp2DH1XPy8yfojvaqBR-23" edge="1">
          <mxGeometry relative="1" as="geometry">
            <mxPoint x="-17.40740740740739" y="229.27621861152141" as="targetPoint" />
            <Array as="points">
              <mxPoint x="43" y="159" />
              <mxPoint x="-17" y="159" />
            </Array>
          </mxGeometry>
        </mxCell>
        <mxCell id="FJp2DH1XPy8yfojvaqBR-23" value="FD-3" style="text;strokeColor=none;fillColor=none;html=1;fontSize=24;fontStyle=1;verticalAlign=middle;align=center;" parent="FJp2DH1XPy8yfojvaqBR-16" vertex="1">
          <mxGeometry x="13.722222222222221" y="92.17134416543574" width="70.37037037037038" height="30.72378138847858" as="geometry" />
        </mxCell>
        <mxCell id="FJp2DH1XPy8yfojvaqBR-24" value="WGWDR-003" style="text;html=1;align=center;verticalAlign=middle;whiteSpace=wrap;rounded=0;fillColor=#dae8fc;strokeColor=#6c8ebf;" parent="FJp2DH1XPy8yfojvaqBR-16" vertex="1">
          <mxGeometry x="4.574074074074074" y="66.50516986706056" width="84.44444444444444" height="15.36189069423929" as="geometry" />
        </mxCell>
        <mxCell id="FJp2DH1XPy8yfojvaqBR-18" value="" style="swimlane;startSize=0;" parent="1" vertex="1">
          <mxGeometry x="-703.3333333333334" y="220.72378138847859" width="98.51851851851852" height="122.89512555391433" as="geometry" />
        </mxCell>
        <mxCell id="FJp2DH1XPy8yfojvaqBR-19" value="" style="sketch=0;aspect=fixed;pointerEvents=1;shadow=0;dashed=0;html=1;strokeColor=none;labelPosition=center;verticalLabelPosition=bottom;verticalAlign=top;align=center;fillColor=#00188D;shape=mxgraph.mscae.enterprise.web_server" parent="FJp2DH1XPy8yfojvaqBR-18" vertex="1">
          <mxGeometry x="38" y="23.042836041358935" width="25.333333333333336" height="33.333333333333336" as="geometry" />
        </mxCell>
        <mxCell id="FJp2DH1XPy8yfojvaqBR-20" value="WGWDR-003" style="text;html=1;align=center;verticalAlign=middle;whiteSpace=wrap;rounded=0;fillColor=#dae8fc;strokeColor=#6c8ebf;" parent="FJp2DH1XPy8yfojvaqBR-18" vertex="1">
          <mxGeometry x="7.037037037037037" y="65.28803545051697" width="84.44444444444444" height="15.36189069423929" as="geometry" />
        </mxCell>
        <mxCell id="gw53NkRwrUZh59jhNFVr-37" style="edgeStyle=orthogonalEdgeStyle;rounded=0;orthogonalLoop=1;jettySize=auto;html=1;" parent="FJp2DH1XPy8yfojvaqBR-18" source="FJp2DH1XPy8yfojvaqBR-22" edge="1">
          <mxGeometry relative="1" as="geometry">
            <mxPoint x="123.33333333333337" y="229.27621861152141" as="targetPoint" />
            <Array as="points">
              <mxPoint x="51" y="159" />
              <mxPoint x="123" y="159" />
            </Array>
          </mxGeometry>
        </mxCell>
        <mxCell id="FJp2DH1XPy8yfojvaqBR-22" value="FD-1" style="text;strokeColor=none;fillColor=none;html=1;fontSize=24;fontStyle=1;verticalAlign=middle;align=center;" parent="FJp2DH1XPy8yfojvaqBR-18" vertex="1">
          <mxGeometry x="16.185185185185187" y="92.17134416543574" width="70.37037037037038" height="30.72378138847858" as="geometry" />
        </mxCell>
        <mxCell id="FJp2DH1XPy8yfojvaqBR-26" value="" style="swimlane;startSize=0;" parent="1" vertex="1">
          <mxGeometry x="-689.2592592592592" y="525.3630871491875" width="98.51851851851852" height="122.89512555391433" as="geometry" />
        </mxCell>
        <mxCell id="FJp2DH1XPy8yfojvaqBR-28" value="IRISA-003" style="text;html=1;align=center;verticalAlign=middle;whiteSpace=wrap;rounded=0;fillColor=#dae8fc;strokeColor=#6c8ebf;" parent="FJp2DH1XPy8yfojvaqBR-26" vertex="1">
          <mxGeometry x="7.037037037037037" y="76.80945347119645" width="84.44444444444444" height="15.36189069423929" as="geometry" />
        </mxCell>
        <mxCell id="FJp2DH1XPy8yfojvaqBR-29" value="FD-3" style="text;strokeColor=none;fillColor=none;html=1;fontSize=24;fontStyle=1;verticalAlign=middle;align=center;" parent="FJp2DH1XPy8yfojvaqBR-26" vertex="1">
          <mxGeometry x="14.074074074074074" y="92.17134416543574" width="70.37037037037038" height="30.72378138847858" as="geometry" />
        </mxCell>
        <mxCell id="FJp2DH1XPy8yfojvaqBR-30" value="" style="sketch=0;aspect=fixed;pointerEvents=1;shadow=0;dashed=0;html=1;strokeColor=none;labelPosition=center;verticalLabelPosition=bottom;verticalAlign=top;align=center;fillColor=#00188D;shape=mxgraph.mscae.enterprise.application_server" parent="FJp2DH1XPy8yfojvaqBR-26" vertex="1">
          <mxGeometry x="34.12962962962963" y="30.72378138847858" width="28.66666666666667" height="33.333333333333336" as="geometry" />
        </mxCell>
        <mxCell id="FJp2DH1XPy8yfojvaqBR-31" value="" style="swimlane;startSize=0;" parent="1" vertex="1">
          <mxGeometry x="-548.5185185185185" y="525.3630871491875" width="98.51851851851852" height="122.89512555391433" as="geometry" />
        </mxCell>
        <mxCell id="FJp2DH1XPy8yfojvaqBR-32" value="IRISDR-003" style="text;html=1;align=center;verticalAlign=middle;whiteSpace=wrap;rounded=0;fillColor=#dae8fc;strokeColor=#6c8ebf;" parent="FJp2DH1XPy8yfojvaqBR-31" vertex="1">
          <mxGeometry x="7.037037037037037" y="69.1285081240768" width="84.44444444444444" height="15.36189069423929" as="geometry" />
        </mxCell>
        <mxCell id="FJp2DH1XPy8yfojvaqBR-33" value="FD-2" style="text;strokeColor=none;fillColor=none;html=1;fontSize=24;fontStyle=1;verticalAlign=middle;align=center;" parent="FJp2DH1XPy8yfojvaqBR-31" vertex="1">
          <mxGeometry x="14.074074074074074" y="92.17134416543574" width="70.37037037037038" height="30.72378138847858" as="geometry" />
        </mxCell>
        <mxCell id="FJp2DH1XPy8yfojvaqBR-34" value="" style="sketch=0;aspect=fixed;pointerEvents=1;shadow=0;dashed=0;html=1;strokeColor=none;labelPosition=center;verticalLabelPosition=bottom;verticalAlign=top;align=center;fillColor=#00188D;shape=mxgraph.mscae.enterprise.application_server" parent="FJp2DH1XPy8yfojvaqBR-31" vertex="1">
          <mxGeometry x="34.12962962962963" y="23.042836041358935" width="28.66666666666667" height="33.333333333333336" as="geometry" />
        </mxCell>
        <mxCell id="2vRvtt7HE-uhfXKZ5bNP-2" style="edgeStyle=orthogonalEdgeStyle;rounded=0;orthogonalLoop=1;jettySize=auto;html=1;entryX=0.75;entryY=1;entryDx=0;entryDy=0;" parent="1" source="FJp2DH1XPy8yfojvaqBR-35" target="FJp2DH1XPy8yfojvaqBR-29" edge="1">
          <mxGeometry relative="1" as="geometry">
            <mxPoint x="-562.5925925925926" y="709.7057754800592" as="targetPoint" />
            <Array as="points">
              <mxPoint x="-622.4074074074074" y="709.7057754800592" />
            </Array>
          </mxGeometry>
        </mxCell>
        <mxCell id="FJp2DH1XPy8yfojvaqBR-35" value="" style="swimlane;startSize=0;fillColor=default;" parent="1" vertex="1">
          <mxGeometry x="-830" y="645.953929098966" width="98.51851851851852" height="130.57607090103397" as="geometry" />
        </mxCell>
        <mxCell id="FJp2DH1XPy8yfojvaqBR-36" value="ATB-002" style="text;html=1;align=center;verticalAlign=middle;whiteSpace=wrap;rounded=0;fillColor=#dae8fc;strokeColor=#6c8ebf;" parent="FJp2DH1XPy8yfojvaqBR-35" vertex="1">
          <mxGeometry x="7.037037037037037" y="84.49039881831611" width="84.44444444444444" height="15.36189069423929" as="geometry" />
        </mxCell>
        <mxCell id="FJp2DH1XPy8yfojvaqBR-37" value="FD-3" style="text;strokeColor=none;fillColor=none;html=1;fontSize=24;fontStyle=1;verticalAlign=middle;align=center;" parent="FJp2DH1XPy8yfojvaqBR-35" vertex="1">
          <mxGeometry x="20.75925925925926" y="99.85228951255539" width="70.37037037037038" height="30.72378138847858" as="geometry" />
        </mxCell>
        <mxCell id="FJp2DH1XPy8yfojvaqBR-39" value="" style="sketch=0;aspect=fixed;pointerEvents=1;shadow=0;dashed=0;html=1;strokeColor=none;labelPosition=center;verticalLabelPosition=bottom;verticalAlign=top;align=center;fillColor=#00188D;shape=mxgraph.mscae.enterprise.database_synchronization;direction=east;" parent="FJp2DH1XPy8yfojvaqBR-35" vertex="1">
          <mxGeometry x="42.22222222222222" y="38.40472673559823" width="26" height="33.333333333333336" as="geometry" />
        </mxCell>
        <mxCell id="2vRvtt7HE-uhfXKZ5bNP-3" value="" style="line;strokeWidth=2;html=1;" parent="1" vertex="1">
          <mxGeometry x="-576.6666666666666" y="525.36646971935" width="14.074074074074074" as="geometry" />
        </mxCell>
        <mxCell id="2vRvtt7HE-uhfXKZ5bNP-10" style="edgeStyle=orthogonalEdgeStyle;rounded=0;orthogonalLoop=1;jettySize=auto;html=1;entryX=0.571;entryY=0.972;entryDx=0;entryDy=0;entryPerimeter=0;exitX=1;exitY=0.5;exitDx=0;exitDy=0;" parent="1" source="FJp2DH1XPy8yfojvaqBR-35" target="FJp2DH1XPy8yfojvaqBR-31" edge="1">
          <mxGeometry relative="1" as="geometry">
            <mxPoint x="-615.3703703703703" y="655.9391580502215" as="targetPoint" />
            <mxPoint x="-724.4444444444445" y="717.3867208271788" as="sourcePoint" />
            <Array as="points">
              <mxPoint x="-731" y="717" />
              <mxPoint x="-492" y="717" />
            </Array>
          </mxGeometry>
        </mxCell>
        <mxCell id="gw53NkRwrUZh59jhNFVr-14" style="edgeStyle=orthogonalEdgeStyle;rounded=0;orthogonalLoop=1;jettySize=auto;html=1;entryX=0;entryY=0.5;entryDx=0;entryDy=0;entryPerimeter=0;" parent="1" source="FJp2DH1XPy8yfojvaqBR-70" target="gw53NkRwrUZh59jhNFVr-1" edge="1">
          <mxGeometry relative="1" as="geometry" />
        </mxCell>
        <mxCell id="gw53NkRwrUZh59jhNFVr-43" value="Arquitetura Sistema IRIS" style="text;strokeColor=#001DBC;fillColor=#021a92;html=1;fontSize=24;fontStyle=1;verticalAlign=middle;align=center;fontColor=#ffffff;" parent="1" vertex="1">
          <mxGeometry x="-360" y="96" width="340" height="40" as="geometry" />
        </mxCell>
        <mxCell id="gw53NkRwrUZh59jhNFVr-44" value="&lt;h1&gt;São Paulo, Brasil&lt;/h1&gt;" style="text;html=1;align=center;verticalAlign=middle;whiteSpace=wrap;rounded=0;fontColor=#00188f;" parent="1" vertex="1">
          <mxGeometry x="-280" y="58.849999999999994" width="240" height="30" as="geometry" />
        </mxCell>
        <mxCell id="gw53NkRwrUZh59jhNFVr-48" value="LB" style="text;html=1;align=center;verticalAlign=middle;whiteSpace=wrap;rounded=0;fontColor=#f58534;fontStyle=1;fontSize=14;" parent="1" vertex="1">
          <mxGeometry x="-765.5" y="389.5" width="40" height="30" as="geometry" />
        </mxCell>
        <mxCell id="gw53NkRwrUZh59jhNFVr-49" value="LB" style="text;html=1;align=center;verticalAlign=middle;whiteSpace=wrap;rounded=0;fontColor=#f58534;fontStyle=1;fontSize=15;" parent="1" vertex="1">
          <mxGeometry x="-620.98" y="34.000000000000014" width="30" height="30" as="geometry" />
        </mxCell>
        <mxCell id="ishIpM6LaKzPjo9WIUcK-2" value="" style="image;html=1;image=img/lib/clip_art/networking/Firewall-page1_128x128.png" vertex="1" parent="1">
          <mxGeometry x="-1150" y="110" width="110" height="100" as="geometry" />
        </mxCell>
        <mxCell id="opvDaBxKPn2LwsBvFDxx-4" value="Firewall" style="text;html=1;align=center;verticalAlign=middle;whiteSpace=wrap;rounded=0;fontColor=#444547;fontStyle=1;fontSize=15;" vertex="1" parent="1">
          <mxGeometry x="-1130" y="210" width="70" height="30.72" as="geometry" />
        </mxCell>
      </root>
    </mxGraphModel>
  </diagram>
  <diagram name="Mount" id="mL_YBdM7BIY4BRjCC35T">
    <mxGraphModel dx="2595" dy="791" grid="1" gridSize="10" guides="1" tooltips="1" connect="1" arrows="1" fold="1" page="1" pageScale="1" pageWidth="1169" pageHeight="827" math="0" shadow="0">
      <root>
        <mxCell id="jRntY2y1DBGPs_HSTuUF-0" />
        <mxCell id="jRntY2y1DBGPs_HSTuUF-1" parent="jRntY2y1DBGPs_HSTuUF-0" />
        <mxCell id="jRntY2y1DBGPs_HSTuUF-2" value="" style="whiteSpace=wrap;html=1;aspect=fixed;fillColor=#eeeeee;strokeColor=none;fontColor=#000000;" parent="jRntY2y1DBGPs_HSTuUF-1" vertex="1">
          <mxGeometry x="-1160" y="20" width="690" height="690" as="geometry" />
        </mxCell>
        <mxCell id="jRntY2y1DBGPs_HSTuUF-3" value="" style="sketch=0;aspect=fixed;pointerEvents=1;shadow=0;dashed=0;html=1;strokeColor=none;labelPosition=center;verticalLabelPosition=bottom;verticalAlign=top;align=center;fillColor=#00188D;shape=mxgraph.mscae.enterprise.internet" parent="jRntY2y1DBGPs_HSTuUF-1" vertex="1">
          <mxGeometry x="-400" y="60" width="80" height="49.6" as="geometry" />
        </mxCell>
        <mxCell id="jRntY2y1DBGPs_HSTuUF-4" value="OCI" style="text;html=1;align=center;verticalAlign=middle;whiteSpace=wrap;rounded=0;fillColor=#021a92;strokeColor=none;fontColor=#ffffff;" parent="jRntY2y1DBGPs_HSTuUF-1" vertex="1">
          <mxGeometry x="-383.5" y="82.60000000000001" width="55" height="21.4" as="geometry" />
        </mxCell>
        <mxCell id="jRntY2y1DBGPs_HSTuUF-40" value="Arquitetura Sistema IRIS" style="text;strokeColor=#001DBC;fillColor=#021a92;html=1;fontSize=24;fontStyle=1;verticalAlign=middle;align=center;fontColor=#ffffff;" parent="jRntY2y1DBGPs_HSTuUF-1" vertex="1">
          <mxGeometry x="-410" y="115.45" width="340" height="40" as="geometry" />
        </mxCell>
        <mxCell id="jRntY2y1DBGPs_HSTuUF-41" value="&lt;h1&gt;São Paulo, Brasil&lt;/h1&gt;" style="text;html=1;align=center;verticalAlign=middle;whiteSpace=wrap;rounded=0;fontColor=#00188f;" parent="jRntY2y1DBGPs_HSTuUF-1" vertex="1">
          <mxGeometry x="-330" y="78.3" width="240" height="30" as="geometry" />
        </mxCell>
        <mxCell id="9czmOt8Oz8Z2THY0wquh-16" value="Mount" style="shape=table;startSize=30;container=1;collapsible=0;childLayout=tableLayout;fixedRows=1;rowLines=0;fontStyle=0;strokeColor=#001DBC;fontSize=16;shadow=1;align=center;verticalAlign=middle;fontFamily=Helvetica;fontColor=#f9f0f0;fillColor=#0050ef;" vertex="1" parent="jRntY2y1DBGPs_HSTuUF-1">
          <mxGeometry x="-1134.95" y="55" width="624.8000000000001" height="625" as="geometry" />
        </mxCell>
        <mxCell id="9czmOt8Oz8Z2THY0wquh-20" value="" style="shape=tableRow;horizontal=0;startSize=0;swimlaneHead=0;swimlaneBody=0;top=0;left=0;bottom=0;right=0;collapsible=0;dropTarget=0;fillColor=none;points=[[0,0.5],[1,0.5]];portConstraint=eastwest;strokeColor=inherit;fontSize=16;shadow=1;align=center;verticalAlign=middle;fontFamily=Helvetica;fontColor=#ffffff;" vertex="1" parent="9czmOt8Oz8Z2THY0wquh-16">
          <mxGeometry y="30" width="624.8000000000001" height="30" as="geometry" />
        </mxCell>
        <mxCell id="9czmOt8Oz8Z2THY0wquh-21" value="/dev" style="shape=partialRectangle;html=1;whiteSpace=wrap;connectable=0;fillColor=none;top=0;left=0;bottom=0;right=0;overflow=hidden;strokeColor=inherit;fontSize=16;shadow=1;align=center;verticalAlign=middle;fontFamily=Helvetica;fontColor=#0E1433;" vertex="1" parent="9czmOt8Oz8Z2THY0wquh-20">
          <mxGeometry width="390" height="30" as="geometry">
            <mxRectangle width="390" height="30" as="alternateBounds" />
          </mxGeometry>
        </mxCell>
        <mxCell id="9czmOt8Oz8Z2THY0wquh-22" value="/dbcache" style="shape=partialRectangle;html=1;whiteSpace=wrap;connectable=0;fillColor=none;top=0;left=0;bottom=0;right=0;align=left;spacingLeft=6;overflow=hidden;strokeColor=inherit;fontSize=16;shadow=1;verticalAlign=middle;fontFamily=Helvetica;fontColor=#0E1433;" vertex="1" parent="9czmOt8Oz8Z2THY0wquh-20">
          <mxGeometry x="390" width="235" height="30" as="geometry">
            <mxRectangle width="235" height="30" as="alternateBounds" />
          </mxGeometry>
        </mxCell>
        <mxCell id="9czmOt8Oz8Z2THY0wquh-23" value="" style="shape=tableRow;horizontal=0;startSize=0;swimlaneHead=0;swimlaneBody=0;top=0;left=0;bottom=0;right=0;collapsible=0;dropTarget=0;fillColor=none;points=[[0,0.5],[1,0.5]];portConstraint=eastwest;strokeColor=inherit;fontSize=16;shadow=1;align=center;verticalAlign=middle;fontFamily=Helvetica;fontColor=#ffffff;" vertex="1" parent="9czmOt8Oz8Z2THY0wquh-16">
          <mxGeometry y="60" width="624.8000000000001" height="30" as="geometry" />
        </mxCell>
        <mxCell id="9czmOt8Oz8Z2THY0wquh-24" value="/dev" style="shape=partialRectangle;html=1;whiteSpace=wrap;connectable=0;fillColor=none;top=0;left=0;bottom=0;right=0;overflow=hidden;strokeColor=inherit;fontSize=16;shadow=1;align=center;verticalAlign=middle;fontFamily=Helvetica;fontColor=#0E1433;" vertex="1" parent="9czmOt8Oz8Z2THY0wquh-23">
          <mxGeometry width="390" height="30" as="geometry">
            <mxRectangle width="390" height="30" as="alternateBounds" />
          </mxGeometry>
        </mxCell>
        <mxCell id="9czmOt8Oz8Z2THY0wquh-25" value="/opt" style="shape=partialRectangle;html=1;whiteSpace=wrap;connectable=0;fillColor=none;top=0;left=0;bottom=0;right=0;align=left;spacingLeft=6;overflow=hidden;strokeColor=inherit;fontSize=16;shadow=1;verticalAlign=middle;fontFamily=Helvetica;fontColor=#0E1433;" vertex="1" parent="9czmOt8Oz8Z2THY0wquh-23">
          <mxGeometry x="390" width="235" height="30" as="geometry">
            <mxRectangle width="235" height="30" as="alternateBounds" />
          </mxGeometry>
        </mxCell>
        <mxCell id="9czmOt8Oz8Z2THY0wquh-26" value="" style="shape=tableRow;horizontal=0;startSize=0;swimlaneHead=0;swimlaneBody=0;top=0;left=0;bottom=0;right=0;collapsible=0;dropTarget=0;fillColor=none;points=[[0,0.5],[1,0.5]];portConstraint=eastwest;strokeColor=inherit;fontSize=16;shadow=1;align=center;verticalAlign=middle;fontFamily=Helvetica;fontColor=#ffffff;" vertex="1" parent="9czmOt8Oz8Z2THY0wquh-16">
          <mxGeometry y="90" width="624.8000000000001" height="30" as="geometry" />
        </mxCell>
        <mxCell id="9czmOt8Oz8Z2THY0wquh-27" value="/dev" style="shape=partialRectangle;html=1;whiteSpace=wrap;connectable=0;fillColor=none;top=0;left=0;bottom=0;right=0;overflow=hidden;strokeColor=inherit;fontSize=16;shadow=1;align=center;verticalAlign=middle;fontFamily=Helvetica;fontColor=#0E1433;" vertex="1" parent="9czmOt8Oz8Z2THY0wquh-26">
          <mxGeometry width="390" height="30" as="geometry">
            <mxRectangle width="390" height="30" as="alternateBounds" />
          </mxGeometry>
        </mxCell>
        <mxCell id="9czmOt8Oz8Z2THY0wquh-28" value="/backup" style="shape=partialRectangle;html=1;whiteSpace=wrap;connectable=0;fillColor=none;top=0;left=0;bottom=0;right=0;align=left;spacingLeft=6;overflow=hidden;strokeColor=inherit;fontSize=16;shadow=1;verticalAlign=middle;fontFamily=Helvetica;fontColor=#0E1433;" vertex="1" parent="9czmOt8Oz8Z2THY0wquh-26">
          <mxGeometry x="390" width="235" height="30" as="geometry">
            <mxRectangle width="235" height="30" as="alternateBounds" />
          </mxGeometry>
        </mxCell>
        <mxCell id="9czmOt8Oz8Z2THY0wquh-29" value="" style="shape=tableRow;horizontal=0;startSize=0;swimlaneHead=0;swimlaneBody=0;top=0;left=0;bottom=0;right=0;collapsible=0;dropTarget=0;fillColor=none;points=[[0,0.5],[1,0.5]];portConstraint=eastwest;strokeColor=inherit;fontSize=16;shadow=1;align=center;verticalAlign=middle;fontFamily=Helvetica;fontColor=#ffffff;" vertex="1" parent="9czmOt8Oz8Z2THY0wquh-16">
          <mxGeometry y="120" width="624.8000000000001" height="25" as="geometry" />
        </mxCell>
        <mxCell id="9czmOt8Oz8Z2THY0wquh-30" value="/dev" style="shape=partialRectangle;html=1;whiteSpace=wrap;connectable=0;fillColor=none;top=0;left=0;bottom=0;right=0;overflow=hidden;strokeColor=inherit;fontSize=16;shadow=1;align=center;verticalAlign=middle;fontFamily=Helvetica;fontColor=#0E1433;" vertex="1" parent="9czmOt8Oz8Z2THY0wquh-29">
          <mxGeometry width="390" height="25" as="geometry">
            <mxRectangle width="390" height="25" as="alternateBounds" />
          </mxGeometry>
        </mxCell>
        <mxCell id="9czmOt8Oz8Z2THY0wquh-31" value="/journal" style="shape=partialRectangle;html=1;whiteSpace=wrap;connectable=0;fillColor=none;top=0;left=0;bottom=0;right=0;align=left;spacingLeft=6;overflow=hidden;strokeColor=inherit;fontSize=16;shadow=1;verticalAlign=middle;fontFamily=Helvetica;fontColor=#0E1433;" vertex="1" parent="9czmOt8Oz8Z2THY0wquh-29">
          <mxGeometry x="390" width="235" height="25" as="geometry">
            <mxRectangle width="235" height="25" as="alternateBounds" />
          </mxGeometry>
        </mxCell>
        <mxCell id="2ssn58mQruI6hJM0S7Oc-0" value="" style="shape=tableRow;horizontal=0;startSize=0;swimlaneHead=0;swimlaneBody=0;top=0;left=0;bottom=0;right=0;collapsible=0;dropTarget=0;fillColor=none;points=[[0,0.5],[1,0.5]];portConstraint=eastwest;strokeColor=inherit;fontSize=16;shadow=1;align=center;verticalAlign=middle;fontFamily=Helvetica;fontColor=#ffffff;" vertex="1" parent="9czmOt8Oz8Z2THY0wquh-16">
          <mxGeometry y="145" width="624.8000000000001" height="30" as="geometry" />
        </mxCell>
        <mxCell id="2ssn58mQruI6hJM0S7Oc-1" value="/dev" style="shape=partialRectangle;html=1;whiteSpace=wrap;connectable=0;fillColor=none;top=0;left=0;bottom=0;right=0;overflow=hidden;strokeColor=inherit;fontSize=16;shadow=1;align=center;verticalAlign=middle;fontFamily=Helvetica;fontColor=#0E1433;" vertex="1" parent="2ssn58mQruI6hJM0S7Oc-0">
          <mxGeometry width="390" height="30" as="geometry">
            <mxRectangle width="390" height="30" as="alternateBounds" />
          </mxGeometry>
        </mxCell>
        <mxCell id="2ssn58mQruI6hJM0S7Oc-2" value="/journal_sec" style="shape=partialRectangle;html=1;whiteSpace=wrap;connectable=0;fillColor=none;top=0;left=0;bottom=0;right=0;align=left;spacingLeft=6;overflow=hidden;strokeColor=inherit;fontSize=16;shadow=1;verticalAlign=middle;fontFamily=Helvetica;fontColor=#0E1433;" vertex="1" parent="2ssn58mQruI6hJM0S7Oc-0">
          <mxGeometry x="390" width="235" height="30" as="geometry">
            <mxRectangle width="235" height="30" as="alternateBounds" />
          </mxGeometry>
        </mxCell>
        <mxCell id="2ssn58mQruI6hJM0S7Oc-3" value="" style="shape=tableRow;horizontal=0;startSize=0;swimlaneHead=0;swimlaneBody=0;top=0;left=0;bottom=0;right=0;collapsible=0;dropTarget=0;fillColor=none;points=[[0,0.5],[1,0.5]];portConstraint=eastwest;strokeColor=inherit;fontSize=16;shadow=1;align=center;verticalAlign=middle;fontFamily=Helvetica;fontColor=#ffffff;" vertex="1" parent="9czmOt8Oz8Z2THY0wquh-16">
          <mxGeometry y="175" width="624.8000000000001" height="30" as="geometry" />
        </mxCell>
        <mxCell id="2ssn58mQruI6hJM0S7Oc-4" value="/dev" style="shape=partialRectangle;html=1;whiteSpace=wrap;connectable=0;fillColor=none;top=0;left=0;bottom=0;right=0;overflow=hidden;strokeColor=inherit;fontSize=16;shadow=1;align=center;verticalAlign=middle;fontFamily=Helvetica;fontColor=#0E1433;" vertex="1" parent="2ssn58mQruI6hJM0S7Oc-3">
          <mxGeometry width="390" height="30" as="geometry">
            <mxRectangle width="390" height="30" as="alternateBounds" />
          </mxGeometry>
        </mxCell>
        <mxCell id="2ssn58mQruI6hJM0S7Oc-5" value="/swapfile01" style="shape=partialRectangle;html=1;whiteSpace=wrap;connectable=0;fillColor=none;top=0;left=0;bottom=0;right=0;align=left;spacingLeft=6;overflow=hidden;strokeColor=inherit;fontSize=16;shadow=1;verticalAlign=middle;fontFamily=Helvetica;fontColor=#0E1433;" vertex="1" parent="2ssn58mQruI6hJM0S7Oc-3">
          <mxGeometry x="390" width="235" height="30" as="geometry">
            <mxRectangle width="235" height="30" as="alternateBounds" />
          </mxGeometry>
        </mxCell>
        <mxCell id="2ssn58mQruI6hJM0S7Oc-6" value="" style="shape=tableRow;horizontal=0;startSize=0;swimlaneHead=0;swimlaneBody=0;top=0;left=0;bottom=0;right=0;collapsible=0;dropTarget=0;fillColor=none;points=[[0,0.5],[1,0.5]];portConstraint=eastwest;strokeColor=inherit;fontSize=16;shadow=1;align=center;verticalAlign=middle;fontFamily=Helvetica;fontColor=#ffffff;" vertex="1" parent="9czmOt8Oz8Z2THY0wquh-16">
          <mxGeometry y="205" width="624.8000000000001" height="30" as="geometry" />
        </mxCell>
        <mxCell id="2ssn58mQruI6hJM0S7Oc-7" value="CIFS - //caedu-prod-fs.ccp.caedu/gp-producao" style="shape=partialRectangle;html=1;whiteSpace=wrap;connectable=0;fillColor=none;top=0;left=0;bottom=0;right=0;overflow=hidden;strokeColor=inherit;fontSize=16;shadow=1;align=center;verticalAlign=middle;fontFamily=Helvetica;fontColor=#0E1433;" vertex="1" parent="2ssn58mQruI6hJM0S7Oc-6">
          <mxGeometry width="390" height="30" as="geometry">
            <mxRectangle width="390" height="30" as="alternateBounds" />
          </mxGeometry>
        </mxCell>
        <mxCell id="2ssn58mQruI6hJM0S7Oc-8" value="/mnt/shares/gp-prod-fs" style="shape=partialRectangle;html=1;whiteSpace=wrap;connectable=0;fillColor=none;top=0;left=0;bottom=0;right=0;align=left;spacingLeft=6;overflow=hidden;strokeColor=inherit;fontSize=16;shadow=1;verticalAlign=middle;fontFamily=Helvetica;fontColor=#0E1433;" vertex="1" parent="2ssn58mQruI6hJM0S7Oc-6">
          <mxGeometry x="390" width="235" height="30" as="geometry">
            <mxRectangle width="235" height="30" as="alternateBounds" />
          </mxGeometry>
        </mxCell>
        <mxCell id="2ssn58mQruI6hJM0S7Oc-9" value="" style="shape=tableRow;horizontal=0;startSize=0;swimlaneHead=0;swimlaneBody=0;top=0;left=0;bottom=0;right=0;collapsible=0;dropTarget=0;fillColor=none;points=[[0,0.5],[1,0.5]];portConstraint=eastwest;strokeColor=inherit;fontSize=16;shadow=1;align=center;verticalAlign=middle;fontFamily=Helvetica;fontColor=#ffffff;" vertex="1" parent="9czmOt8Oz8Z2THY0wquh-16">
          <mxGeometry y="235" width="624.8000000000001" height="30" as="geometry" />
        </mxCell>
        <mxCell id="2ssn58mQruI6hJM0S7Oc-10" value="CIFS - //caedu-prod-fs.ccp.caedu/BKP_IRIS" style="shape=partialRectangle;html=1;whiteSpace=wrap;connectable=0;fillColor=none;top=0;left=0;bottom=0;right=0;overflow=hidden;strokeColor=inherit;fontSize=16;shadow=1;align=center;verticalAlign=middle;fontFamily=Helvetica;fontColor=#0E1433;" vertex="1" parent="2ssn58mQruI6hJM0S7Oc-9">
          <mxGeometry width="390" height="30" as="geometry">
            <mxRectangle width="390" height="30" as="alternateBounds" />
          </mxGeometry>
        </mxCell>
        <mxCell id="2ssn58mQruI6hJM0S7Oc-11" value="/mnt/shares/BKP_IRIS" style="shape=partialRectangle;html=1;whiteSpace=wrap;connectable=0;fillColor=none;top=0;left=0;bottom=0;right=0;align=left;spacingLeft=6;overflow=hidden;strokeColor=inherit;fontSize=16;shadow=1;verticalAlign=middle;fontFamily=Helvetica;fontColor=#0E1433;" vertex="1" parent="2ssn58mQruI6hJM0S7Oc-9">
          <mxGeometry x="390" width="235" height="30" as="geometry">
            <mxRectangle width="235" height="30" as="alternateBounds" />
          </mxGeometry>
        </mxCell>
        <mxCell id="2ssn58mQruI6hJM0S7Oc-12" value="" style="shape=tableRow;horizontal=0;startSize=0;swimlaneHead=0;swimlaneBody=0;top=0;left=0;bottom=0;right=0;collapsible=0;dropTarget=0;fillColor=none;points=[[0,0.5],[1,0.5]];portConstraint=eastwest;strokeColor=inherit;fontSize=16;shadow=1;align=center;verticalAlign=middle;fontFamily=Helvetica;fontColor=#ffffff;" vertex="1" parent="9czmOt8Oz8Z2THY0wquh-16">
          <mxGeometry y="265" width="624.8000000000001" height="30" as="geometry" />
        </mxCell>
        <mxCell id="2ssn58mQruI6hJM0S7Oc-13" value="CIFS - //caedu-easy-001/arquivos" style="shape=partialRectangle;html=1;whiteSpace=wrap;connectable=0;fillColor=none;top=0;left=0;bottom=0;right=0;overflow=hidden;strokeColor=inherit;fontSize=16;shadow=1;align=center;verticalAlign=middle;fontFamily=Helvetica;fontColor=#0E1433;" vertex="1" parent="2ssn58mQruI6hJM0S7Oc-12">
          <mxGeometry width="390" height="30" as="geometry">
            <mxRectangle width="390" height="30" as="alternateBounds" />
          </mxGeometry>
        </mxCell>
        <mxCell id="2ssn58mQruI6hJM0S7Oc-14" value="/mnt/shares/EasyCollector" style="shape=partialRectangle;html=1;whiteSpace=wrap;connectable=0;fillColor=none;top=0;left=0;bottom=0;right=0;align=left;spacingLeft=6;overflow=hidden;strokeColor=inherit;fontSize=16;shadow=1;verticalAlign=middle;fontFamily=Helvetica;fontColor=#0E1433;" vertex="1" parent="2ssn58mQruI6hJM0S7Oc-12">
          <mxGeometry x="390" width="235" height="30" as="geometry">
            <mxRectangle width="235" height="30" as="alternateBounds" />
          </mxGeometry>
        </mxCell>
        <mxCell id="2ssn58mQruI6hJM0S7Oc-15" value="" style="shape=tableRow;horizontal=0;startSize=0;swimlaneHead=0;swimlaneBody=0;top=0;left=0;bottom=0;right=0;collapsible=0;dropTarget=0;fillColor=none;points=[[0,0.5],[1,0.5]];portConstraint=eastwest;strokeColor=inherit;fontSize=16;shadow=1;align=center;verticalAlign=middle;fontFamily=Helvetica;fontColor=#ffffff;" vertex="1" parent="9czmOt8Oz8Z2THY0wquh-16">
          <mxGeometry y="295" width="624.8000000000001" height="30" as="geometry" />
        </mxCell>
        <mxCell id="2ssn58mQruI6hJM0S7Oc-16" value="CIFS - //caedu-prod-fs.ccp.caedu/iam" style="shape=partialRectangle;html=1;whiteSpace=wrap;connectable=0;fillColor=none;top=0;left=0;bottom=0;right=0;overflow=hidden;strokeColor=inherit;fontSize=16;shadow=1;align=center;verticalAlign=middle;fontFamily=Helvetica;fontColor=#0E1433;" vertex="1" parent="2ssn58mQruI6hJM0S7Oc-15">
          <mxGeometry width="390" height="30" as="geometry">
            <mxRectangle width="390" height="30" as="alternateBounds" />
          </mxGeometry>
        </mxCell>
        <mxCell id="2ssn58mQruI6hJM0S7Oc-17" value="/mnt/shares/iam" style="shape=partialRectangle;html=1;whiteSpace=wrap;connectable=0;fillColor=none;top=0;left=0;bottom=0;right=0;align=left;spacingLeft=6;overflow=hidden;strokeColor=inherit;fontSize=16;shadow=1;verticalAlign=middle;fontFamily=Helvetica;fontColor=#0E1433;" vertex="1" parent="2ssn58mQruI6hJM0S7Oc-15">
          <mxGeometry x="390" width="235" height="30" as="geometry">
            <mxRectangle width="235" height="30" as="alternateBounds" />
          </mxGeometry>
        </mxCell>
        <mxCell id="2ssn58mQruI6hJM0S7Oc-18" value="" style="shape=tableRow;horizontal=0;startSize=0;swimlaneHead=0;swimlaneBody=0;top=0;left=0;bottom=0;right=0;collapsible=0;dropTarget=0;fillColor=none;points=[[0,0.5],[1,0.5]];portConstraint=eastwest;strokeColor=inherit;fontSize=16;shadow=1;align=center;verticalAlign=middle;fontFamily=Helvetica;fontColor=#ffffff;" vertex="1" parent="9czmOt8Oz8Z2THY0wquh-16">
          <mxGeometry y="325" width="624.8000000000001" height="30" as="geometry" />
        </mxCell>
        <mxCell id="2ssn58mQruI6hJM0S7Oc-19" value="CIFS - //caedu-prod-fs.ccp.caedu/Bradesco_Van" style="shape=partialRectangle;html=1;whiteSpace=wrap;connectable=0;fillColor=none;top=0;left=0;bottom=0;right=0;overflow=hidden;strokeColor=inherit;fontSize=16;shadow=1;align=center;verticalAlign=middle;fontFamily=Helvetica;fontColor=#0E1433;" vertex="1" parent="2ssn58mQruI6hJM0S7Oc-18">
          <mxGeometry width="390" height="30" as="geometry">
            <mxRectangle width="390" height="30" as="alternateBounds" />
          </mxGeometry>
        </mxCell>
        <mxCell id="2ssn58mQruI6hJM0S7Oc-20" value="/mnt/shares/bradesco_van" style="shape=partialRectangle;html=1;whiteSpace=wrap;connectable=0;fillColor=none;top=0;left=0;bottom=0;right=0;align=left;spacingLeft=6;overflow=hidden;strokeColor=inherit;fontSize=16;shadow=1;verticalAlign=middle;fontFamily=Helvetica;fontColor=#0E1433;" vertex="1" parent="2ssn58mQruI6hJM0S7Oc-18">
          <mxGeometry x="390" width="235" height="30" as="geometry">
            <mxRectangle width="235" height="30" as="alternateBounds" />
          </mxGeometry>
        </mxCell>
        <mxCell id="2ssn58mQruI6hJM0S7Oc-45" value="" style="shape=tableRow;horizontal=0;startSize=0;swimlaneHead=0;swimlaneBody=0;top=0;left=0;bottom=0;right=0;collapsible=0;dropTarget=0;fillColor=none;points=[[0,0.5],[1,0.5]];portConstraint=eastwest;strokeColor=inherit;fontSize=16;shadow=1;align=center;verticalAlign=middle;fontFamily=Helvetica;fontColor=#ffffff;" vertex="1" parent="9czmOt8Oz8Z2THY0wquh-16">
          <mxGeometry y="355" width="624.8000000000001" height="30" as="geometry" />
        </mxCell>
        <mxCell id="2ssn58mQruI6hJM0S7Oc-46" value="CIFS - //caedu-prod-fs.ccp.caedu/itau&amp;nbsp;&amp;nbsp;" style="shape=partialRectangle;html=1;whiteSpace=wrap;connectable=0;fillColor=none;top=0;left=0;bottom=0;right=0;overflow=hidden;strokeColor=inherit;fontSize=16;shadow=1;align=center;verticalAlign=middle;fontFamily=Helvetica;fontColor=#0E1433;" vertex="1" parent="2ssn58mQruI6hJM0S7Oc-45">
          <mxGeometry width="390" height="30" as="geometry">
            <mxRectangle width="390" height="30" as="alternateBounds" />
          </mxGeometry>
        </mxCell>
        <mxCell id="2ssn58mQruI6hJM0S7Oc-47" value="/mnt/shares/itau_van" style="shape=partialRectangle;html=1;whiteSpace=wrap;connectable=0;fillColor=none;top=0;left=0;bottom=0;right=0;align=left;spacingLeft=6;overflow=hidden;strokeColor=inherit;fontSize=16;shadow=1;verticalAlign=middle;fontFamily=Helvetica;fontColor=#0E1433;" vertex="1" parent="2ssn58mQruI6hJM0S7Oc-45">
          <mxGeometry x="390" width="235" height="30" as="geometry">
            <mxRectangle width="235" height="30" as="alternateBounds" />
          </mxGeometry>
        </mxCell>
        <mxCell id="2ssn58mQruI6hJM0S7Oc-21" value="" style="shape=tableRow;horizontal=0;startSize=0;swimlaneHead=0;swimlaneBody=0;top=0;left=0;bottom=0;right=0;collapsible=0;dropTarget=0;fillColor=none;points=[[0,0.5],[1,0.5]];portConstraint=eastwest;strokeColor=inherit;fontSize=16;shadow=1;align=center;verticalAlign=middle;fontFamily=Helvetica;fontColor=#ffffff;" vertex="1" parent="9czmOt8Oz8Z2THY0wquh-16">
          <mxGeometry y="385" width="624.8000000000001" height="30" as="geometry" />
        </mxCell>
        <mxCell id="2ssn58mQruI6hJM0S7Oc-22" value="CIFS - //caedu-prod-fs.ccp.caedu/FTPIMPORTSYS" style="shape=partialRectangle;html=1;whiteSpace=wrap;connectable=0;fillColor=none;top=0;left=0;bottom=0;right=0;overflow=hidden;strokeColor=inherit;fontSize=16;shadow=1;align=center;verticalAlign=middle;fontFamily=Helvetica;fontColor=#0E1433;" vertex="1" parent="2ssn58mQruI6hJM0S7Oc-21">
          <mxGeometry width="390" height="30" as="geometry">
            <mxRectangle width="390" height="30" as="alternateBounds" />
          </mxGeometry>
        </mxCell>
        <mxCell id="2ssn58mQruI6hJM0S7Oc-23" value="/mnt/shares/ftp-importsys" style="shape=partialRectangle;html=1;whiteSpace=wrap;connectable=0;fillColor=none;top=0;left=0;bottom=0;right=0;align=left;spacingLeft=6;overflow=hidden;strokeColor=inherit;fontSize=16;shadow=1;verticalAlign=middle;fontFamily=Helvetica;fontColor=#0E1433;" vertex="1" parent="2ssn58mQruI6hJM0S7Oc-21">
          <mxGeometry x="390" width="235" height="30" as="geometry">
            <mxRectangle width="235" height="30" as="alternateBounds" />
          </mxGeometry>
        </mxCell>
        <mxCell id="2ssn58mQruI6hJM0S7Oc-24" value="" style="shape=tableRow;horizontal=0;startSize=0;swimlaneHead=0;swimlaneBody=0;top=0;left=0;bottom=0;right=0;collapsible=0;dropTarget=0;fillColor=none;points=[[0,0.5],[1,0.5]];portConstraint=eastwest;strokeColor=inherit;fontSize=16;shadow=1;align=center;verticalAlign=middle;fontFamily=Helvetica;fontColor=#ffffff;" vertex="1" parent="9czmOt8Oz8Z2THY0wquh-16">
          <mxGeometry y="415" width="624.8000000000001" height="30" as="geometry" />
        </mxCell>
        <mxCell id="2ssn58mQruI6hJM0S7Oc-25" value="CIFS - //caedu-prod-fs.ccp.caedu/Regulatorio&amp;nbsp;" style="shape=partialRectangle;html=1;whiteSpace=wrap;connectable=0;fillColor=none;top=0;left=0;bottom=0;right=0;overflow=hidden;strokeColor=inherit;fontSize=16;shadow=1;align=center;verticalAlign=middle;fontFamily=Helvetica;fontColor=#0E1433;" vertex="1" parent="2ssn58mQruI6hJM0S7Oc-24">
          <mxGeometry width="390" height="30" as="geometry">
            <mxRectangle width="390" height="30" as="alternateBounds" />
          </mxGeometry>
        </mxCell>
        <mxCell id="2ssn58mQruI6hJM0S7Oc-26" value="/mnt/shares/regulatorio" style="shape=partialRectangle;html=1;whiteSpace=wrap;connectable=0;fillColor=none;top=0;left=0;bottom=0;right=0;align=left;spacingLeft=6;overflow=hidden;strokeColor=inherit;fontSize=16;shadow=1;verticalAlign=middle;fontFamily=Helvetica;fontColor=#0E1433;" vertex="1" parent="2ssn58mQruI6hJM0S7Oc-24">
          <mxGeometry x="390" width="235" height="30" as="geometry">
            <mxRectangle width="235" height="30" as="alternateBounds" />
          </mxGeometry>
        </mxCell>
        <mxCell id="2ssn58mQruI6hJM0S7Oc-27" value="" style="shape=tableRow;horizontal=0;startSize=0;swimlaneHead=0;swimlaneBody=0;top=0;left=0;bottom=0;right=0;collapsible=0;dropTarget=0;fillColor=none;points=[[0,0.5],[1,0.5]];portConstraint=eastwest;strokeColor=inherit;fontSize=16;shadow=1;align=center;verticalAlign=middle;fontFamily=Helvetica;fontColor=#ffffff;" vertex="1" parent="9czmOt8Oz8Z2THY0wquh-16">
          <mxGeometry y="445" width="624.8000000000001" height="30" as="geometry" />
        </mxCell>
        <mxCell id="2ssn58mQruI6hJM0S7Oc-28" value="CIFS - //srvprjfs.ccp.caedu/Avanticard$" style="shape=partialRectangle;html=1;whiteSpace=wrap;connectable=0;fillColor=none;top=0;left=0;bottom=0;right=0;overflow=hidden;strokeColor=inherit;fontSize=16;shadow=1;align=center;verticalAlign=middle;fontFamily=Helvetica;fontColor=#0E1433;" vertex="1" parent="2ssn58mQruI6hJM0S7Oc-27">
          <mxGeometry width="390" height="30" as="geometry">
            <mxRectangle width="390" height="30" as="alternateBounds" />
          </mxGeometry>
        </mxCell>
        <mxCell id="2ssn58mQruI6hJM0S7Oc-29" value="/mnt/shares/Avanticard" style="shape=partialRectangle;html=1;whiteSpace=wrap;connectable=0;fillColor=none;top=0;left=0;bottom=0;right=0;align=left;spacingLeft=6;overflow=hidden;strokeColor=inherit;fontSize=16;shadow=1;verticalAlign=middle;fontFamily=Helvetica;fontColor=#0E1433;" vertex="1" parent="2ssn58mQruI6hJM0S7Oc-27">
          <mxGeometry x="390" width="235" height="30" as="geometry">
            <mxRectangle width="235" height="30" as="alternateBounds" />
          </mxGeometry>
        </mxCell>
        <mxCell id="2ssn58mQruI6hJM0S7Oc-30" value="" style="shape=tableRow;horizontal=0;startSize=0;swimlaneHead=0;swimlaneBody=0;top=0;left=0;bottom=0;right=0;collapsible=0;dropTarget=0;fillColor=none;points=[[0,0.5],[1,0.5]];portConstraint=eastwest;strokeColor=inherit;fontSize=16;shadow=1;align=center;verticalAlign=middle;fontFamily=Helvetica;fontColor=#ffffff;" vertex="1" parent="9czmOt8Oz8Z2THY0wquh-16">
          <mxGeometry y="475" width="624.8000000000001" height="30" as="geometry" />
        </mxCell>
        <mxCell id="2ssn58mQruI6hJM0S7Oc-31" value="CIFS - //srvprjfs.ccp.caedu/File_Server$&amp;nbsp;" style="shape=partialRectangle;html=1;whiteSpace=wrap;connectable=0;fillColor=none;top=0;left=0;bottom=0;right=0;overflow=hidden;strokeColor=inherit;fontSize=16;shadow=1;align=center;verticalAlign=middle;fontFamily=Helvetica;fontColor=#0E1433;" vertex="1" parent="2ssn58mQruI6hJM0S7Oc-30">
          <mxGeometry width="390" height="30" as="geometry">
            <mxRectangle width="390" height="30" as="alternateBounds" />
          </mxGeometry>
        </mxCell>
        <mxCell id="2ssn58mQruI6hJM0S7Oc-32" value="/mnt/shares/srvprjfs" style="shape=partialRectangle;html=1;whiteSpace=wrap;connectable=0;fillColor=none;top=0;left=0;bottom=0;right=0;align=left;spacingLeft=6;overflow=hidden;strokeColor=inherit;fontSize=16;shadow=1;verticalAlign=middle;fontFamily=Helvetica;fontColor=#0E1433;" vertex="1" parent="2ssn58mQruI6hJM0S7Oc-30">
          <mxGeometry x="390" width="235" height="30" as="geometry">
            <mxRectangle width="235" height="30" as="alternateBounds" />
          </mxGeometry>
        </mxCell>
        <mxCell id="2ssn58mQruI6hJM0S7Oc-33" value="" style="shape=tableRow;horizontal=0;startSize=0;swimlaneHead=0;swimlaneBody=0;top=0;left=0;bottom=0;right=0;collapsible=0;dropTarget=0;fillColor=none;points=[[0,0.5],[1,0.5]];portConstraint=eastwest;strokeColor=inherit;fontSize=16;shadow=1;align=center;verticalAlign=middle;fontFamily=Helvetica;fontColor=#ffffff;" vertex="1" parent="9czmOt8Oz8Z2THY0wquh-16">
          <mxGeometry y="505" width="624.8000000000001" height="30" as="geometry" />
        </mxCell>
        <mxCell id="2ssn58mQruI6hJM0S7Oc-34" value="CIFS - //srvprjfs.ccp.caedu/Logistica$&amp;nbsp;&amp;nbsp;" style="shape=partialRectangle;html=1;whiteSpace=wrap;connectable=0;fillColor=none;top=0;left=0;bottom=0;right=0;overflow=hidden;strokeColor=inherit;fontSize=16;shadow=1;align=center;verticalAlign=middle;fontFamily=Helvetica;fontColor=#0E1433;" vertex="1" parent="2ssn58mQruI6hJM0S7Oc-33">
          <mxGeometry width="390" height="30" as="geometry">
            <mxRectangle width="390" height="30" as="alternateBounds" />
          </mxGeometry>
        </mxCell>
        <mxCell id="2ssn58mQruI6hJM0S7Oc-35" value="/mnt/shares/Logistica" style="shape=partialRectangle;html=1;whiteSpace=wrap;connectable=0;fillColor=none;top=0;left=0;bottom=0;right=0;align=left;spacingLeft=6;overflow=hidden;strokeColor=inherit;fontSize=16;shadow=1;verticalAlign=middle;fontFamily=Helvetica;fontColor=#0E1433;" vertex="1" parent="2ssn58mQruI6hJM0S7Oc-33">
          <mxGeometry x="390" width="235" height="30" as="geometry">
            <mxRectangle width="235" height="30" as="alternateBounds" />
          </mxGeometry>
        </mxCell>
        <mxCell id="2ssn58mQruI6hJM0S7Oc-36" value="" style="shape=tableRow;horizontal=0;startSize=0;swimlaneHead=0;swimlaneBody=0;top=0;left=0;bottom=0;right=0;collapsible=0;dropTarget=0;fillColor=none;points=[[0,0.5],[1,0.5]];portConstraint=eastwest;strokeColor=inherit;fontSize=16;shadow=1;align=center;verticalAlign=middle;fontFamily=Helvetica;fontColor=#ffffff;" vertex="1" parent="9czmOt8Oz8Z2THY0wquh-16">
          <mxGeometry y="535" width="624.8000000000001" height="30" as="geometry" />
        </mxCell>
        <mxCell id="2ssn58mQruI6hJM0S7Oc-37" value="CIFS - //caedu-prod-fs.ccp.caedu/AVT" style="shape=partialRectangle;html=1;whiteSpace=wrap;connectable=0;fillColor=none;top=0;left=0;bottom=0;right=0;overflow=hidden;strokeColor=inherit;fontSize=16;shadow=1;align=center;verticalAlign=middle;fontFamily=Helvetica;fontColor=#0E1433;" vertex="1" parent="2ssn58mQruI6hJM0S7Oc-36">
          <mxGeometry width="390" height="30" as="geometry">
            <mxRectangle width="390" height="30" as="alternateBounds" />
          </mxGeometry>
        </mxCell>
        <mxCell id="2ssn58mQruI6hJM0S7Oc-38" value="/mnt/shares/gp-prod-fs/AVT" style="shape=partialRectangle;html=1;whiteSpace=wrap;connectable=0;fillColor=none;top=0;left=0;bottom=0;right=0;align=left;spacingLeft=6;overflow=hidden;strokeColor=inherit;fontSize=16;shadow=1;verticalAlign=middle;fontFamily=Helvetica;fontColor=#0E1433;" vertex="1" parent="2ssn58mQruI6hJM0S7Oc-36">
          <mxGeometry x="390" width="235" height="30" as="geometry">
            <mxRectangle width="235" height="30" as="alternateBounds" />
          </mxGeometry>
        </mxCell>
        <mxCell id="2ssn58mQruI6hJM0S7Oc-39" value="" style="shape=tableRow;horizontal=0;startSize=0;swimlaneHead=0;swimlaneBody=0;top=0;left=0;bottom=0;right=0;collapsible=0;dropTarget=0;fillColor=none;points=[[0,0.5],[1,0.5]];portConstraint=eastwest;strokeColor=inherit;fontSize=16;shadow=1;align=center;verticalAlign=middle;fontFamily=Helvetica;fontColor=#ffffff;" vertex="1" parent="9czmOt8Oz8Z2THY0wquh-16">
          <mxGeometry y="565" width="624.8000000000001" height="30" as="geometry" />
        </mxCell>
        <mxCell id="2ssn58mQruI6hJM0S7Oc-40" value="NFS4 - 172.18.0.97:/datafile&amp;nbsp;" style="shape=partialRectangle;html=1;whiteSpace=wrap;connectable=0;fillColor=none;top=0;left=0;bottom=0;right=0;overflow=hidden;strokeColor=inherit;fontSize=16;shadow=1;align=center;verticalAlign=middle;fontFamily=Helvetica;fontColor=#0E1433;" vertex="1" parent="2ssn58mQruI6hJM0S7Oc-39">
          <mxGeometry width="390" height="30" as="geometry">
            <mxRectangle width="390" height="30" as="alternateBounds" />
          </mxGeometry>
        </mxCell>
        <mxCell id="2ssn58mQruI6hJM0S7Oc-41" value="/datafile" style="shape=partialRectangle;html=1;whiteSpace=wrap;connectable=0;fillColor=none;top=0;left=0;bottom=0;right=0;align=left;spacingLeft=6;overflow=hidden;strokeColor=inherit;fontSize=16;shadow=1;verticalAlign=middle;fontFamily=Helvetica;fontColor=#0E1433;" vertex="1" parent="2ssn58mQruI6hJM0S7Oc-39">
          <mxGeometry x="390" width="235" height="30" as="geometry">
            <mxRectangle width="235" height="30" as="alternateBounds" />
          </mxGeometry>
        </mxCell>
        <mxCell id="2ssn58mQruI6hJM0S7Oc-42" value="" style="shape=tableRow;horizontal=0;startSize=0;swimlaneHead=0;swimlaneBody=0;top=0;left=0;bottom=0;right=0;collapsible=0;dropTarget=0;fillColor=none;points=[[0,0.5],[1,0.5]];portConstraint=eastwest;strokeColor=inherit;fontSize=16;shadow=1;align=center;verticalAlign=middle;fontFamily=Helvetica;fontColor=#ffffff;" vertex="1" parent="9czmOt8Oz8Z2THY0wquh-16">
          <mxGeometry y="595" width="624.8000000000001" height="30" as="geometry" />
        </mxCell>
        <mxCell id="2ssn58mQruI6hJM0S7Oc-43" value="NFS4 -&amp;nbsp; 172.18.0.97:/files&amp;nbsp; &amp;nbsp;" style="shape=partialRectangle;html=1;whiteSpace=wrap;connectable=0;fillColor=none;top=0;left=0;bottom=0;right=0;overflow=hidden;strokeColor=inherit;fontSize=16;shadow=1;align=center;verticalAlign=middle;fontFamily=Helvetica;fontColor=#0E1433;" vertex="1" parent="2ssn58mQruI6hJM0S7Oc-42">
          <mxGeometry width="390" height="30" as="geometry">
            <mxRectangle width="390" height="30" as="alternateBounds" />
          </mxGeometry>
        </mxCell>
        <mxCell id="2ssn58mQruI6hJM0S7Oc-44" value="/files" style="shape=partialRectangle;html=1;whiteSpace=wrap;connectable=0;fillColor=none;top=0;left=0;bottom=0;right=0;align=left;spacingLeft=6;overflow=hidden;strokeColor=inherit;fontSize=16;shadow=1;verticalAlign=middle;fontFamily=Helvetica;fontColor=#0E1433;" vertex="1" parent="2ssn58mQruI6hJM0S7Oc-42">
          <mxGeometry x="390" width="235" height="30" as="geometry">
            <mxRectangle width="235" height="30" as="alternateBounds" />
          </mxGeometry>
        </mxCell>
        <mxCell id="2qu1ZngW0noZjApTqn9m-0" value="Configurações" style="shape=table;startSize=30;container=1;collapsible=0;childLayout=tableLayout;fixedRows=1;rowLines=0;fontStyle=0;strokeColor=#001DBC;fontSize=16;shadow=1;align=center;verticalAlign=middle;fontFamily=Helvetica;fontColor=#f9f0f0;fillColor=#0050ef;" vertex="1" parent="jRntY2y1DBGPs_HSTuUF-1">
          <mxGeometry x="-449.67" y="275" width="429.6700000000001" height="180" as="geometry" />
        </mxCell>
        <mxCell id="2qu1ZngW0noZjApTqn9m-1" value="" style="shape=tableRow;horizontal=0;startSize=0;swimlaneHead=0;swimlaneBody=0;top=0;left=0;bottom=0;right=0;collapsible=0;dropTarget=0;fillColor=none;points=[[0,0.5],[1,0.5]];portConstraint=eastwest;strokeColor=inherit;fontSize=16;shadow=1;align=center;verticalAlign=middle;fontFamily=Helvetica;fontColor=#ffffff;" vertex="1" parent="2qu1ZngW0noZjApTqn9m-0">
          <mxGeometry y="30" width="429.6700000000001" height="30" as="geometry" />
        </mxCell>
        <mxCell id="2qu1ZngW0noZjApTqn9m-2" value="IRISA-003" style="shape=partialRectangle;html=1;whiteSpace=wrap;connectable=0;fillColor=none;top=0;left=0;bottom=0;right=0;overflow=hidden;pointerEvents=1;strokeColor=inherit;fontSize=16;shadow=1;align=center;verticalAlign=middle;fontFamily=Helvetica;fontColor=#0E1433;" vertex="1" parent="2qu1ZngW0noZjApTqn9m-1">
          <mxGeometry width="110" height="30" as="geometry">
            <mxRectangle width="110" height="30" as="alternateBounds" />
          </mxGeometry>
        </mxCell>
        <mxCell id="2qu1ZngW0noZjApTqn9m-3" value="&lt;font color=&quot;#000000&quot;&gt;4 OCPU - Memory 105 Gb - SWAP 45 Gb&lt;/font&gt;" style="shape=partialRectangle;html=1;whiteSpace=wrap;connectable=0;fillColor=none;top=0;left=0;bottom=0;right=0;align=left;spacingLeft=6;overflow=hidden;strokeColor=inherit;fontSize=16;shadow=1;verticalAlign=middle;fontFamily=Helvetica;fontColor=#ffffff;" vertex="1" parent="2qu1ZngW0noZjApTqn9m-1">
          <mxGeometry x="110" width="320" height="30" as="geometry">
            <mxRectangle width="320" height="30" as="alternateBounds" />
          </mxGeometry>
        </mxCell>
        <mxCell id="2qu1ZngW0noZjApTqn9m-4" value="" style="shape=tableRow;horizontal=0;startSize=0;swimlaneHead=0;swimlaneBody=0;top=0;left=0;bottom=0;right=0;collapsible=0;dropTarget=0;fillColor=none;points=[[0,0.5],[1,0.5]];portConstraint=eastwest;strokeColor=inherit;fontSize=16;shadow=1;align=center;verticalAlign=middle;fontFamily=Helvetica;fontColor=#ffffff;" vertex="1" parent="2qu1ZngW0noZjApTqn9m-0">
          <mxGeometry y="60" width="429.6700000000001" height="30" as="geometry" />
        </mxCell>
        <mxCell id="2qu1ZngW0noZjApTqn9m-5" value="IRISDR-003" style="shape=partialRectangle;html=1;whiteSpace=wrap;connectable=0;fillColor=none;top=0;left=0;bottom=0;right=0;overflow=hidden;strokeColor=inherit;fontSize=16;shadow=1;align=center;verticalAlign=middle;fontFamily=Helvetica;fontColor=#0E1433;" vertex="1" parent="2qu1ZngW0noZjApTqn9m-4">
          <mxGeometry width="110" height="30" as="geometry">
            <mxRectangle width="110" height="30" as="alternateBounds" />
          </mxGeometry>
        </mxCell>
        <mxCell id="2qu1ZngW0noZjApTqn9m-6" value="&lt;span style=&quot;color: rgb(0, 0, 0);&quot;&gt;4 OCPU - Memory 105 Gb - SWAP 45 Gb&lt;/span&gt;" style="shape=partialRectangle;html=1;whiteSpace=wrap;connectable=0;fillColor=none;top=0;left=0;bottom=0;right=0;align=left;spacingLeft=6;overflow=hidden;strokeColor=inherit;fontSize=16;shadow=1;verticalAlign=middle;fontFamily=Helvetica;fontColor=#0E1433;" vertex="1" parent="2qu1ZngW0noZjApTqn9m-4">
          <mxGeometry x="110" width="320" height="30" as="geometry">
            <mxRectangle width="320" height="30" as="alternateBounds" />
          </mxGeometry>
        </mxCell>
        <mxCell id="2qu1ZngW0noZjApTqn9m-7" value="" style="shape=tableRow;horizontal=0;startSize=0;swimlaneHead=0;swimlaneBody=0;top=0;left=0;bottom=0;right=0;collapsible=0;dropTarget=0;fillColor=none;points=[[0,0.5],[1,0.5]];portConstraint=eastwest;strokeColor=inherit;fontSize=16;shadow=1;align=center;verticalAlign=middle;fontFamily=Helvetica;fontColor=#ffffff;" vertex="1" parent="2qu1ZngW0noZjApTqn9m-0">
          <mxGeometry y="90" width="429.6700000000001" height="30" as="geometry" />
        </mxCell>
        <mxCell id="2qu1ZngW0noZjApTqn9m-8" value="WGW-003" style="shape=partialRectangle;html=1;whiteSpace=wrap;connectable=0;fillColor=none;top=0;left=0;bottom=0;right=0;overflow=hidden;strokeColor=inherit;fontSize=16;shadow=1;align=center;verticalAlign=middle;fontFamily=Helvetica;fontColor=#0E1433;" vertex="1" parent="2qu1ZngW0noZjApTqn9m-7">
          <mxGeometry width="110" height="30" as="geometry">
            <mxRectangle width="110" height="30" as="alternateBounds" />
          </mxGeometry>
        </mxCell>
        <mxCell id="2qu1ZngW0noZjApTqn9m-9" value="&lt;span style=&quot;color: rgb(0, 0, 0);&quot;&gt;1 OCPU - Memory 4 Gb&lt;/span&gt;" style="shape=partialRectangle;html=1;whiteSpace=wrap;connectable=0;fillColor=none;top=0;left=0;bottom=0;right=0;align=left;spacingLeft=6;overflow=hidden;strokeColor=inherit;fontSize=16;shadow=1;verticalAlign=middle;fontFamily=Helvetica;fontColor=#0E1433;" vertex="1" parent="2qu1ZngW0noZjApTqn9m-7">
          <mxGeometry x="110" width="320" height="30" as="geometry">
            <mxRectangle width="320" height="30" as="alternateBounds" />
          </mxGeometry>
        </mxCell>
        <mxCell id="2qu1ZngW0noZjApTqn9m-10" value="" style="shape=tableRow;horizontal=0;startSize=0;swimlaneHead=0;swimlaneBody=0;top=0;left=0;bottom=0;right=0;collapsible=0;dropTarget=0;fillColor=none;points=[[0,0.5],[1,0.5]];portConstraint=eastwest;strokeColor=inherit;fontSize=16;shadow=1;align=center;verticalAlign=middle;fontFamily=Helvetica;fontColor=#ffffff;" vertex="1" parent="2qu1ZngW0noZjApTqn9m-0">
          <mxGeometry y="120" width="429.6700000000001" height="30" as="geometry" />
        </mxCell>
        <mxCell id="2qu1ZngW0noZjApTqn9m-11" value="WGWDR-003" style="shape=partialRectangle;html=1;whiteSpace=wrap;connectable=0;fillColor=none;top=0;left=0;bottom=0;right=0;overflow=hidden;strokeColor=inherit;fontSize=16;shadow=1;align=center;verticalAlign=middle;fontFamily=Helvetica;fontColor=#0E1433;" vertex="1" parent="2qu1ZngW0noZjApTqn9m-10">
          <mxGeometry width="110" height="30" as="geometry">
            <mxRectangle width="110" height="30" as="alternateBounds" />
          </mxGeometry>
        </mxCell>
        <mxCell id="2qu1ZngW0noZjApTqn9m-12" value="&lt;span style=&quot;color: rgb(0, 0, 0);&quot;&gt;1 OCPU - Memory 4 Gb&lt;/span&gt;" style="shape=partialRectangle;html=1;whiteSpace=wrap;connectable=0;fillColor=none;top=0;left=0;bottom=0;right=0;align=left;spacingLeft=6;overflow=hidden;strokeColor=inherit;fontSize=16;shadow=1;verticalAlign=middle;fontFamily=Helvetica;fontColor=#0E1433;" vertex="1" parent="2qu1ZngW0noZjApTqn9m-10">
          <mxGeometry x="110" width="320" height="30" as="geometry">
            <mxRectangle width="320" height="30" as="alternateBounds" />
          </mxGeometry>
        </mxCell>
        <mxCell id="2qu1ZngW0noZjApTqn9m-13" value="" style="shape=tableRow;horizontal=0;startSize=0;swimlaneHead=0;swimlaneBody=0;top=0;left=0;bottom=0;right=0;collapsible=0;dropTarget=0;fillColor=none;points=[[0,0.5],[1,0.5]];portConstraint=eastwest;strokeColor=inherit;fontSize=16;shadow=1;align=center;verticalAlign=middle;fontFamily=Helvetica;fontColor=#ffffff;" vertex="1" parent="2qu1ZngW0noZjApTqn9m-0">
          <mxGeometry y="150" width="429.6700000000001" height="30" as="geometry" />
        </mxCell>
        <mxCell id="2qu1ZngW0noZjApTqn9m-14" value="OTB-001" style="shape=partialRectangle;html=1;whiteSpace=wrap;connectable=0;fillColor=none;top=0;left=0;bottom=0;right=0;overflow=hidden;strokeColor=inherit;fontSize=16;shadow=1;align=center;verticalAlign=middle;fontFamily=Helvetica;fontColor=#0E1433;" vertex="1" parent="2qu1ZngW0noZjApTqn9m-13">
          <mxGeometry width="110" height="30" as="geometry">
            <mxRectangle width="110" height="30" as="alternateBounds" />
          </mxGeometry>
        </mxCell>
        <mxCell id="2qu1ZngW0noZjApTqn9m-15" value="&lt;span style=&quot;color: rgb(0, 0, 0);&quot;&gt;2 OCPU - Memory 80 Gb&lt;/span&gt;" style="shape=partialRectangle;html=1;whiteSpace=wrap;connectable=0;fillColor=none;top=0;left=0;bottom=0;right=0;align=left;spacingLeft=6;overflow=hidden;strokeColor=inherit;fontSize=16;shadow=1;verticalAlign=middle;fontFamily=Helvetica;fontColor=#0E1433;" vertex="1" parent="2qu1ZngW0noZjApTqn9m-13">
          <mxGeometry x="110" width="320" height="30" as="geometry">
            <mxRectangle width="320" height="30" as="alternateBounds" />
          </mxGeometry>
        </mxCell>
      </root>
    </mxGraphModel>
  </diagram>
</mxfile>
